<svg id="Layer_1" data-name="Layer 1" xmlns="http://www.w3.org/2000/svg" viewBox="0 0 32 32">
<defs>
<style>.cls-1{fill:#fff;}</style>
</defs>
<title>dicon</title>
<rect width="32" height="32"/>
<path class="cls-1" d="M4,28v-.65h.9a2.38,2.38,0,0,0,2.14-1,5.59,5.59,0,0,0,.38-2.59V8.41a4.92,4.92,0,0,0-.49-2.79,2.57,2.57,0,0,0-2-.77H4V4.2h9.68a21.13,21.13,0,0,1,8.12,1.21,9.66,9.66,0,0,1,4.47,4A12.4,12.4,0,0,1,27.92,16a11.92,11.92,0,0,1-3,8.3Q21.52,28,14.59,28Zm6.79-1.72a18.45,18.45,0,0,0,3.74.49,8.89,8.89,0,0,0,6.75-2.86,10.87,10.87,0,0,0,2.68-7.75,10.84,10.84,0,0,0-2.68-7.77,9.05,9.05,0,0,0-6.89-2.85,14.87,14.87,0,0,0-3.6.51Z"/>
</svg>